 http://img713.imageshack.us/img713/7002/teamexd.png 
http://imageshack.us/a/img706/1875/kyasuerkoolhainham001.jpg

Format                                   : Matroska
Format version                           : Version 2
File size                                : 1.37 GiB
Duration                                 : 2h 16mn
Overall bit rate                         : 1 443 Kbps
Movie name                               : Kyaa Super Kool Hain Hum [2012]--720p--DVDRip-By-K@rtik [EXD Exclusive]
Format                                   : AVC
Format/Info                              : Advanced Video Codec
Format profile                           : High@L3.1
Format settings, ReFrames                : 4 frames
Muxing mode                              : Header stripping
Codec ID                                 : V_MPEG4/ISO/AVC
Duration                                 : 2h 16mn
Bit rate                                 : 967 Kbps
Nominal bit rate                         : 913 Kbps
Width                                    : 1 280 pixels
Height                                   : 544 pixels
Display aspect ratio                     : 2.35:1
Stream size                              : 942 MiB (67%)
Title                                    : K@rtik
Codec ID                                 : A_AC3
Duration                                 : 2h 16mn
Bit rate                                 : 448 Kbps
Channel(s)                               : 6 channels
Channel positions                        : Front: L C R, Side: L R, LFE
Sampling rate                            : 48.0 KHz
Stream size                              : 437 MiB (31%)
Title                                    : K@rtik 
http://imageshack.us/a/img838/6238/37748926.png 
http://imageshack.us/a/img37/6213/38237459.png 
http://imageshack.us/a/img600/5814/38094830.png 
http://imageshack.us/a/img692/4142/16454592.png 
http://imageshack.us/a/img59/9320/90829118.png 
http://imageshack.us/a/img843/5946/88212011.png 
http://imageshack.us/a/img856/7321/92203423.png 
http://imageshack.us/a/img571/5715/47382602.png 
http://imageshack.us/a/img198/2580/38279450.png 
http://imageshack.us/a/img694/2895/86905879.png 
http://imageshack.us/a/img607/6944/67688450.png 
http://imageshack.us/a/img696/4378/92247444.png

